/* XPM */
static char *apci8_erdxl[] = {
/* columns rows colors chars-per-pixel */
"66 66 196 2 ",
"   c None",
".  c #18165F",
"X  c #18175F",
"o  c #181860",
"O  c #191860",
"+  c #191961",
"@  c #1A1961",
"#  c #1A1B63",
"$  c #1A1C63",
"%  c #1B1C63",
"&  c #1C1D65",
"*  c #1C1E65",
"=  c #1C1F66",
"-  c #1C2067",
";  c #1E2269",
":  c #1F256B",
">  c #2C2467",
",  c #27276B",
"<  c #20276C",
"1  c #21286D",
"2  c #222A6F",
"3  c #222B70",
"4  c #232C71",
"5  c #242E72",
"6  c #242F74",
"7  c #282F72",
"8  c #263377",
"9  c #273478",
"0  c #283679",
"q  c #28377A",
"w  c #29397C",
"e  c #2A3A7D",
"r  c #2A3B7D",
"t  c #2B3C7E",
"y  c #2B3D7F",
"u  c #43407B",
"i  c #2C3F81",
"p  c #2D4183",
"a  c #2E4283",
"s  c #2F4484",
"d  c #2F4485",
"f  c #2F4586",
"g  c #304686",
"h  c #304787",
"j  c #394381",
"k  c #3F4682",
"l  c #314888",
"z  c #314889",
"x  c #314A8A",
"c  c #34508F",
"v  c #355190",
"b  c #365392",
"n  c #375392",
"m  c #365492",
"M  c #375493",
"N  c #385694",
"B  c #385795",
"V  c #385895",
"C  c #395896",
"Z  c #395996",
"A  c #3A5B98",
"S  c #3B5D9A",
"D  c #3C5E9B",
"F  c #3C5F9B",
"G  c #3D619D",
"H  c #3D629E",
"J  c #3E629E",
"K  c #3E639F",
"L  c #3F66A1",
"P  c #424A85",
"I  c #424C87",
"U  c #4D4880",
"Y  c #4C4981",
"T  c #4F4B83",
"R  c #484A84",
"E  c #484B85",
"W  c #504D84",
"Q  c #514F86",
"!  c #45508B",
"~  c #47548E",
"^  c #4A5088",
"/  c #4A5089",
"(  c #4C558D",
")  c #525087",
"_  c #525187",
"`  c #535288",
"'  c #535389",
"]  c #53548A",
"[  c #54558B",
"{  c #55568C",
"}  c #55578C",
"|  c #585589",
" . c #52598F",
".. c #56588D",
"X. c #56598E",
"o. c #4A5A93",
"O. c #4F5A91",
"+. c #515F95",
"@. c #656091",
"#. c #646191",
"$. c #666192",
"%. c #636394",
"&. c #626596",
"*. c #686696",
"=. c #71739F",
"-. c #75739D",
";. c #4066A1",
":. c #4067A2",
">. c #4168A3",
",. c #4169A4",
"<. c #426AA5",
"1. c #436DA7",
"2. c #4B70A7",
"3. c #4570AA",
"4. c #4774AE",
"5. c #4C7FB6",
"6. c #6571A0",
"7. c #6775A5",
"8. c #7376A1",
"9. c #7676A0",
"0. c #7A76A0",
"q. c #787AA4",
"w. c #7982AC",
"e. c #7B86AF",
"r. c #6383B3",
"t. c #6F8CB9",
"y. c #7588B3",
"u. c #7B93BD",
"i. c #8985AA",
"p. c #8C8CB0",
"a. c #8F92B5",
"s. c #8295BC",
"d. c #9094B6",
"f. c #9495B6",
"g. c #9196B9",
"h. c #9197B9",
"j. c #939ABC",
"k. c #949BBC",
"l. c #949BBD",
"z. c #9E9CBA",
"x. c #879DC3",
"c. c #969FC0",
"v. c #81A0C7",
"b. c #8CA8CC",
"n. c #96A0C1",
"m. c #97A2C3",
"M. c #98A4C4",
"N. c #98A5C5",
"B. c #9AA7C7",
"V. c #9AA8C8",
"C. c #9BAAC9",
"Z. c #9CADCB",
"A. c #9DAECC",
"S. c #9EB1CF",
"D. c #9FB3D0",
"F. c #A1A8C5",
"G. c #AEAEC7",
"H. c #A4AECB",
"J. c #A1B6D3",
"K. c #A7B4D0",
"L. c #A2B7D4",
"P. c #A8B4D0",
"I. c #A3BAD7",
"U. c #A4BCD8",
"Y. c #A5BFDA",
"T. c #C4C2D5",
"R. c #C6C6D8",
"E. c #C6C7D8",
"W. c #C7C9DA",
"Q. c #C1C9DD",
"!. c #C8CADB",
"~. c #CACEDF",
"^. c #D2CFDE",
"/. c #CCD1E1",
"(. c #CCD2E2",
"). c #CDD5E4",
"_. c #CED5E5",
"`. c #CFD8E7",
"'. c #D6D8E5",
"]. c #D7DAE6",
"[. c #D0D9E8",
"{. c #D0DAE9",
"}. c #D0DBEA",
"|. c #D1DCEA",
" X c #D1DDEB",
".X c #D2DDEB",
"XX c #D2DEEC",
"oX c #D2DFED",
"OX c #D3DFED",
"+X c #D8DDE9",
"@X c #E1E0EA",
"#X c #E2E3EB",
"$X c #E3E4ED",
"%X c #E3EAF2",
"&X c #F1F1F6",
"*X c white",
/* pixels */
"                                                                                                                                    ",
"                                                                                                                                    ",
"                                                                                                                                    ",
"                                                                                                                                    ",
"                                                                                                                                    ",
"                                                                                                                                    ",
"                                                                                                                                    ",
"                                                                                                                                    ",
"                                                                                                                                    ",
"                                                                                                                                    ",
"                                                                                                                                    ",
"                                                                                                                                    ",
"                                                                                                                                    ",
"                                                                                                                                    ",
"                                                                                                                                    ",
"                                                                                                                                    ",
"                                                                                                                                    ",
"                                                                                                                                    ",
"                                                          *X*X*X*X*X*X*X*X                                                          ",
"                                                    *X*X*X*X*X*X*X*X*X*X*X*X*X*X                                                    ",
"                                                *X*X*X*X*X*X*X*X*X*X*X*X*X*X*X*X*X*X                                                ",
"                                              *X*X*X*X*X*X*X*X*X*X*X*X*X*X*X*X*X*X*X*X                                              ",
"                                            *X*X*X*X*X*X*X*X*X*X*X*X*X*X*X*X*X*X*X*X*X*X                                            ",
"                                          *X#Xa.g.j.c.M.V.Z.S.J.I.Y.U.L.D.A.K.+X*X*X*X*X*X                                          ",
"                                        *X*XR.O #.T W Q ) ` ' [ } X...{ ] ' _ , j ].*X*X*X*X                                        ",
"                                        *X*XR.o T.i.i.i.i.i.i.i.i.i.i.i.i.i.i.0.U 7 '.*X*X*X                                        ",
"                                      *X*X*XR.= p.+ + + + + + + + + + + + + + + + +  .*X*X*X*X                                      ",
"                                      *X*X*XR.< d.1 1 1 1 1 1 1 1 1 1 1 1 1 1 1 1 1 3 &X*X*X*X                                      ",
"                                      *X*X*XR.5 k.0 0 0 0 e p s g l h d i F.0 0 0 0 8 W.*X*X*X                                      ",
"                                    *X^.| E k w m.f f f f c `.{. XoXXX}.D /.f f f f y I / =.*X*X                                    ",
"                                    *X> H.).).).Q.b b b b B *X*X*X*X*X*XH ).b b b b P.).).B.%.*X                                    ",
"                                    *Xz.y.J J J x.J J J J F *X*X*X*X*X*XL `.J J J J J J J n Y *X                                    ",
"                                    *X*XG.w.6.M |.3.3.3.3.;.*X*X*X*X*X*X,.|.3.3.3.3.C 7.e.f.@X*X                                    ",
"                                    *X*X9.O.~ S OX5.5.5.5.1.*X*X*X*X*X*X1.OX5.5.5.5.G o.+.q.*X*X                                    ",
"                                    *X$.v.I.I.I.%X4.4.4.4.>.*X*X*X*X*X*X<..X4.4.4.4.b.I.I.u.*.*X                                    ",
"                                    *X@.s.2.L L r.L L L L G *X*X*X*X*X*X:.[.L L L L r.t.t.r.&.*X                                    ",
"                                    *X*X-.^ P d _.B B B B Z *X*X*X*X*X*XK _.B B B B z ! ( 8.*X*X                                    ",
"                                      *X*X*XR.q (.l l l l v *X*X*X*X*X*XF (.l l l l t W.*X*X*X                                      ",
"                                      *X*X*XR.6 ~.w w w w x *X*X*X*X*X*XA ~.w w w w 9 W.*X*X*X                                      ",
"                                      *X*X*XR.1 !.2 2 2 2 a *X*X*X*X*X*XV !.2 2 2 2 4 W.*X*X*X                                      ",
"                                        *X*XR.- E.# # # # r *X*X*X*X*X*Xm E.# # # # : W.*X*X                                        ",
"                                        *X*XR.$ u . + # & y *X*X*X*X*X*XN R * % @ X ; W.*X*X                                        ",
"                                          *X#Xa.g.j.c.M.V.Z.*X*X*X*X*X*XD.A.C.N.n.l.h.$X*X                                          ",
"                                            *X*X*X*X*X*X*X*X*X*X*X*X*X*X*X*X*X*X*X*X*X*X                                            ",
"                                              *X*X*X*X*X*X*X*X*X*X*X*X*X*X*X*X*X*X*X*X                                              ",
"                                                *X*X*X*X*X*X*X*X*X*X*X*X*X*X*X*X*X*X                                                ",
"                                                    *X*X*X*X*X*X*X*X*X*X*X*X*X*X                                                    ",
"                                                          *X*X*X*X*X*X*X*X                                                          ",
"                                                                                                                                    ",
"                                                                                                                                    ",
"                                                                                                                                    ",
"                                                                                                                                    ",
"                                                                                                                                    ",
"                                                                                                                                    ",
"                                                                                                                                    ",
"                                                                                                                                    ",
"                                                                                                                                    ",
"                                                                                                                                    ",
"                                                                                                                                    ",
"                                                                                                                                    ",
"                                                                                                                                    ",
"                                                                                                                                    ",
"                                                                                                                                    ",
"                                                                                                                                    ",
"                                                                                                                                    ",
"                                                                                                                                    "
};
