/* XPM */
static char *aa28f15018714fda93e5c0d8f1d043b8[] = {
/* columns rows colors chars-per-pixel */
"32 32 158 2 ",
"   c None",
".  c #16125B",
"X  c #17135D",
"o  c #1D2067",
"O  c #1D2168",
"+  c #1E2168",
"@  c #1E2369",
"#  c #252165",
"$  c #20276D",
"%  c #2F2769",
"&  c #20286D",
"*  c #21286E",
"=  c #21296F",
"-  c #222A6F",
";  c #2E286A",
":  c #232D72",
">  c #232D73",
",  c #242F73",
"<  c #242F74",
"1  c #292F72",
"2  c #2B2F72",
"3  c #253075",
"4  c #253175",
"5  c #263176",
"6  c #263377",
"7  c #263378",
"8  c #283579",
"9  c #283679",
"0  c #2A397C",
"q  c #2A3A7D",
"w  c #2A3B7D",
"e  c #2B3C7F",
"r  c #393D7B",
"t  c #4A417A",
"y  c #2C3E80",
"u  c #2D4082",
"i  c #2D4182",
"p  c #2D4283",
"a  c #2E4384",
"s  c #2F4486",
"d  c #334383",
"f  c #304687",
"g  c #304888",
"h  c #314889",
"j  c #32498A",
"k  c #374A88",
"l  c #334C8B",
"z  c #334D8C",
"x  c #344F8E",
"c  c #34508F",
"v  c #355290",
"b  c #365391",
"n  c #365492",
"m  c #375594",
"M  c #375694",
"N  c #385694",
"B  c #395896",
"V  c #395997",
"C  c #395A97",
"Z  c #3A5A98",
"A  c #3B5D99",
"S  c #3B5C9A",
"D  c #3C609C",
"F  c #3E639F",
"G  c #4F4C83",
"H  c #484D86",
"J  c #504D84",
"K  c #40518C",
"L  c #4A5089",
"P  c #4B538B",
"I  c #4C548C",
"U  c #4D578E",
"Y  c #4E578F",
"T  c #525288",
"R  c #535389",
"E  c #56598E",
"W  c #4F5B92",
"Q  c #4C5E95",
"!  c #545A90",
"~  c #56689D",
"^  c #676393",
"/  c #626495",
"(  c #6A6493",
")  c #636798",
"_  c #6E6C9A",
"`  c #77709B",
"'  c #71709D",
"]  c #72729F",
"[  c #4068A3",
"{  c #586CA0",
"}  c #596FA3",
"|  c #4571AA",
" . c #4775AE",
".. c #4C71A9",
"X. c #5B71A4",
"o. c #5B73A6",
"O. c #5C76A8",
"+. c #5D76A8",
"@. c #5D77A9",
"#. c #5E79AB",
"$. c #5E7AAC",
"%. c #4C7FB6",
"&. c #607CAE",
"*. c #607EAF",
"=. c #627FAF",
"-. c #657DAD",
";. c #5E86B8",
":. c #7682AD",
">. c #6180B1",
",. c #6281B2",
"<. c #6383B4",
"1. c #6484B4",
"2. c #6E8AB7",
"3. c #708EBA",
"4. c #7C97C0",
"5. c #8388AF",
"6. c #8A88AC",
"7. c #8C8CB0",
"8. c #8F90B4",
"9. c #8E91B4",
"0. c #8293BA",
"q. c #8296BC",
"w. c #9297BA",
"e. c #959DBE",
"r. c #A4A0BC",
"t. c #A6A1BE",
"y. c #A5A2BE",
"u. c #829CC3",
"i. c #969FC0",
"p. c #98A4C4",
"a. c #99A6C5",
"s. c #9CABCA",
"d. c #9CADCB",
"f. c #9FB1CF",
"g. c #A7A5C1",
"h. c #AEB3CC",
"j. c #B3B0C7",
"k. c #A0B4D1",
"l. c #A8B5D0",
"z. c #A2B8D5",
"x. c #A3BAD7",
"c. c #A6BFDB",
"v. c #BEBBD0",
"b. c #C4C1D4",
"n. c #C5C4D6",
"m. c #C7C8D9",
"M. c #C9CBDC",
"N. c #CACFDF",
"B. c #D2CFDE",
"V. c #D2D1DF",
"C. c #CCD2E2",
"Z. c #CED5E5",
"A. c #D4DAE8",
"S. c #D1DDEB",
"D. c #E3E5ED",
"F. c #E4E7EF",
"G. c #F0F0F4",
"H. c white",
/* pixels */
"                      H.H.H.H.H.H.H.H.H.H.                      ",
"                  H.H.H.H.H.H.H.H.H.H.H.H.H.H.                  ",
"              H.H.H.H.H.H.H.H.H.H.H.H.H.H.H.H.H.H.              ",
"            H.H.H.H.H.H.H.H.H.H.H.H.H.H.H.H.H.H.H.H.            ",
"          H.H.H.H.H.H.H.H.H.H.H.H.H.H.H.H.H.H.H.H.H.H.          ",
"        H.H.H.H.H.H.H.H.H.H.H.H.H.H.H.H.H.H.H.H.H.H.H.H.        ",
"      H.H.E o $ : 4 w i s z b B F Z n x h i d :.F.H.H.H.H.      ",
"    H.H.H.E v.b.b.b.b.b.b.b.b.b.b.b.b.b.b.b.t.; & h.H.H.H.H.    ",
"    H.H.H.E n.. . . . . . . . . . . . . . . . J # 1 D.H.H.H.    ",
"  H.H.H.H.E m.o o o o o o o o o o o o o o o o o o + 5.H.H.H.H.  ",
"  H.H.H.H.E M.: : : : : : : : : : : : : : : : : : : P H.H.H.H.  ",
"H.H.H.H.H.E N.w w w w w h c n B A A N c e.w w w w w U H.H.H.H.H.",
"H.j.; : 4 8 C.h h h h h O.H.H.H.H.H.H.3.p.h h h h h y 8 4 / H.H.",
"H.t p.l.s.s.A.N N N N N #.H.H.H.H.H.H.3.s.m m m N O.Z.Z.Z.0.' H.",
"H.B.Q F F F 2.F F F F F &.H.H.H.H.H.H.3.k.F F F F F F F F s ( H.",
"H.H.V.6.7.r z.| | | | | >.H.H.H.H.H.H.3.z.| | | | | K 9.7.g.G.H.",
"H.H.t.G P 4 x.;.%.%.%.;.<.H.H.H.H.H.H.3.c.%.%.%.%.%.l E R g.H.H.",
"H.r.>.z.z.x.S. . . .|  .>.H.H.H.H.H.H.3.c. . . . .;.x.z.x.X.t.H.",
"H.` q.4.3.3.4.[ [ [ [ [ *.H.H.H.H.H.H.3.k.[ [ [ [ ..3.3.3.1.' H.",
"H.H.^ + : 4 d.C C M Z B $.H.H.H.H.H.H.3.d.B Z B B B i 4 & ) H.H.",
"H.H.H.H.H.E p.l z z z z O.H.H.H.H.H.H.3.p.l l l l l W H.H.H.H.H.",
"  H.H.H.H.E p.w y y y y o.H.H.H.H.H.H.3.p.w i w y y U H.H.H.H.  ",
"  H.H.H.H.E w.4 > > > > } H.H.H.H.H.H.3.w.3 : 4 < < P H.H.H.H.  ",
"    H.H.H.E 9.@ @ O O O { H.H.H.H.H.H.3.8.o + + + + P H.H.H.    ",
"    H.H.H.E _ X X X X X ~ H.H.H.H.H.H.3._ X X X X X H H.H.H.    ",
"      H.H.E + $ : 7 w i -.H.H.H.H.H.H.3.h s e 8 < $ ! H.H.      ",
"        H.H.H.H.H.H.H.H.H.H.H.H.H.H.H.H.H.H.H.H.H.H.H.H.        ",
"          H.H.H.H.H.H.H.H.H.H.H.H.H.H.H.H.H.H.H.H.H.H.          ",
"            H.H.H.H.H.H.H.H.H.H.H.H.H.H.H.H.H.H.H.H.            ",
"              H.H.H.H.H.H.H.H.H.H.H.H.H.H.H.H.H.H.              ",
"                  H.H.H.H.H.H.H.H.H.H.H.H.H.H.                  ",
"                      H.H.H.H.H.H.H.H.H.H.                      "
};
