/* XPM */
static char *aaym6_aipop[] = {
/* columns rows colors chars-per-pixel */
"64 64 114 2 ",
"   c None",
".  c #0F0450",
"X  c #130C57",
"o  c #140E58",
"O  c #16125C",
"+  c #1B155D",
"@  c #191760",
"#  c #1A1A62",
"$  c #1D2067",
"%  c #1E2269",
"&  c #252165",
"*  c #2D2366",
"=  c #20276D",
"-  c #2E2668",
";  c #21286E",
":  c #232E73",
">  c #263276",
",  c #273478",
"<  c #28377A",
"1  c #2A3B7D",
"2  c #393D7B",
"3  c #3C417F",
"4  c #4B437C",
"5  c #2C3E80",
"6  c #2E4384",
"7  c #304787",
"8  c #304788",
"9  c #324B8B",
"0  c #34508F",
"q  c #365391",
"w  c #385694",
"e  c #395A97",
"r  c #3B5C9A",
"t  c #3D629E",
"y  c #3F65A0",
"u  c #4E4A81",
"i  c #504D85",
"p  c #515087",
"a  c #53548A",
"s  c #5B5588",
"d  c #56598E",
"f  c #5C588B",
"g  c #475992",
"h  c #4F5991",
"j  c #575C90",
"k  c #595E93",
"l  c #5A6295",
"z  c #5C6699",
"x  c #5E6A9D",
"c  c #6B6695",
"v  c #77719C",
"b  c #79749E",
"n  c #4766A0",
"m  c #4169A4",
"M  c #446FA9",
"N  c #516BA1",
"B  c #4673AC",
"V  c #4974AD",
"C  c #5575A9",
"Z  c #5D76A8",
"A  c #587BAF",
"S  c #4A7CB3",
"D  c #616FA0",
"F  c #6373A4",
"G  c #657AAA",
"H  c #687EAE",
"J  c #7376A2",
"K  c #767DA8",
"L  c #6981AF",
"P  c #6B85B3",
"I  c #6E8AB7",
"U  c #678AB9",
"Y  c #6E8CB8",
"T  c #708EBA",
"R  c #7192BD",
"E  c #7B94BD",
"W  c #7495C1",
"Q  c #769AC4",
"!  c #789FC8",
"~  c #8781A7",
"^  c #8B89AD",
"/  c #8E90B4",
"(  c #8B99BD",
")  c #9193B5",
"_  c #9DA0BF",
"`  c #A5A2BE",
"'  c #8FA0C3",
"]  c #8AA5C9",
"[  c #94AACB",
"{  c #9CACCB",
"}  c #9EB0CE",
"|  c #A6A4C0",
" . c #AAACC7",
".. c #ABAEC8",
"X. c #AFB6CF",
"o. c #A0B4D1",
"O. c #AAB8D3",
"+. c #B3BFD8",
"@. c #AEC0DA",
"#. c #B5C0D7",
"$. c #B7C6DC",
"%. c #BEC5D9",
"&. c #C5C3D5",
"*. c #C6C6D8",
"=. c #C7C8D9",
"-. c #C9CCDD",
";. c #C2CDE0",
":. c #CED5E5",
">. c #D1DBEA",
",. c #E1E1EA",
"<. c #F0EFF4",
"1. c #F1F1F6",
"2. c #F4F6FA",
"3. c white",
/* pixels */
"                                                  3.3.3.3.3.3.3.3.3.3.3.3.3.3.                                                  ",
"                                            3.3.3.3.3.3.3.3.3.3.3.3.3.3.3.3.3.3.3.3.                                            ",
"                                      3.3.3.3.3.3.3.3.3.3.3.3.3.3.3.3.3.3.3.3.3.3.3.3.3.3.                                      ",
"                                  3.3.3.3.3.3.3.3.3.3.3.3.3.3.3.3.3.3.3.3.3.3.3.3.3.3.3.3.3.3.                                  ",
"                              3.3.3.3.3.3.3.3.3.3.3.3.3.3.3.3.3.3.3.3.3.3.3.3.3.3.3.3.3.3.3.3.3.3.                              ",
"                            3.3.3.3.3.3.3.3.3.3.3.3.3.3.3.3.3.3.3.3.3.3.3.3.3.3.3.3.3.3.3.3.3.3.3.3.                            ",
"                        3.3.3.3.3.3.3.3.3.3.3.3.3.3.3.3.3.3.3.3.3.3.3.3.3.3.3.3.3.3.3.3.3.3.3.3.3.3.3.3.                        ",
"                      3.3.3.3.3.3.3.3.3.3.3.3.3.3.3.3.3.3.3.3.3.3.3.3.3.3.3.3.3.3.3.3.3.3.3.3.3.3.3.3.3.3.                      ",
"                    3.3.3.3.3.3.3.3.3.3.3.3.3.3.3.3.3.3.3.3.3.3.3.3.3.3.3.3.3.3.3.3.3.3.3.3.3.3.3.3.3.3.3.3.                    ",
"                  3.3.3.3.3.3.3.3.3.3.3.3.3.3.3.3.3.3.3.3.3.3.3.3.3.3.3.3.3.3.3.3.3.3.3.3.3.3.3.3.3.3.3.3.3.3.                  ",
"                3.3.3.3.3.3.3.3.3.3.3.3.3.3.3.3.3.3.3.3.3.3.3.3.3.3.3.3.3.3.3.3.3.3.3.3.3.3.3.3.3.3.3.3.3.3.3.3.                ",
"              3.3.3.3.3.3.3.3.3.3.3.3.3.3.3.3.3.3.3.3.3.3.3.2.2.3.3.3.3.3.3.3.3.3.3.3.3.3.3.3.3.3.3.3.3.3.3.3.3.3.              ",
"            3.3.3.3. .d k l z x x Z c G G G L L L U Y R R R Q Q ! ! Q Q W R T I I P L H G ( &.3.3.3.3.3.3.3.3.3.3.3.            ",
"            3.3.3.3.) = + @ # # $ % % % % % : : : > , , < < 3 3 5 6 5 1 1 < , , , : ; ; = > 7 g X.3.3.3.3.3.3.3.3.3.            ",
"          3.3.3.3.3./ = + c 4 4 4 4 4 4 4 4 4 4 4 4 4 4 4 4 4 4 4 4 4 4 4 4 4 4 4 4 4 4 4 * . # , x 1.3.3.3.3.3.3.3.3.          ",
"        3.3.3.3.3.3./ = u 1.&.&.&.&.&.&.&.=.&.&.&.&.&.&.&.&.&.%.&.&.&.&.&.&.&.&.&.&.&.&.&.&.&.4 o , h 1.3.3.3.3.3.3.3.3.        ",
"        3.3.3.3.3.3./ % p &.+ O O O O O O O O O O O O O O O O O O O O O O O O O O O O O O + & ^ u + > K 3.3.3.3.3.3.3.3.        ",
"      3.3.3.3.3.3.3./ % a =.@ @ @ @ # # @ # # O # # O # # # # # # # # # @ # # # # # @ @ @ # @ # @ @ @ > =.3.3.3.3.3.3.3.3.      ",
"      3.3.3.3.3.3.3./ & d *.$ $ $ % % % % % $ $ % % $ % $ % % % $ $ % % $ $ % % $ $ $ $ $ $ # % % % $ % l 3.3.3.3.3.3.3.3.      ",
"    3.3.3.3.3.3.3.3./ = j -.% : % % % : % : % % % : % % % % % : % % % : % % % % : % ; ; ; % = % : % % : ; ,.3.3.3.3.3.3.3.3.    ",
"    3.3.3.3.3.3.3.3./ = l -.: : : : : : > : : : : : : : : : : : > : : : : : : : : : : : : : : : : : : : % { 3.3.3.3.3.3.3.3.    ",
"    3.3.3.3.3.3.3.3./ = z -., , > > > > < , < > , , , , , , , , < < > > , , , , , , , , , , , , , , , , > / 3.3.3.3.3.3.3.3.    ",
"  3.3.3.3.3.3.3.3.3./ = x ;.1 1 5 1 < 3 < < 1 1 6 6 6 8 8 8 8 9 9 0 9 8 8 9 8 6 1 -.< 1 1 1 1 1 1 < 1 1 > ) 3.3.3.3.3.3.3.3.3.  ",
"  3.3.3.3.3.3.3.3.3./ = F :.6 6 6 6 6 6 6 6 6 6 w t y B y B B S S S U y S y y y 6 3.6 6 6 6 6 6 6 6 6 6 > / 3.3.3.3.3.3.3.3.3.  ",
"  3.3.<.` u u u a a 2 % G :.8 9 8 8 8 8 8 8 8 8 e o.2.3.3.3.3.3.2.2.3.3.3.3.o.y 8 3.8 8 8 8 9 8 8 8 8 8 , 6 d d a p u d ,.3.3.  ",
"3.3.3.* + 1 6 6 6 6 6 8 G :.9 9 0 0 0 0 0 0 0 0 e [ 3.3.3.3.3.3.3.3.3.3.3.3.o.y 9 3.q 9 9 q 9 0 0 0 0 0 9 6 6 6 6 6 6 % + 1.3.3.",
"3.3.&.. 6 ' { { { { { { +.,.w w q q q e e q e t r } 3.3.3.3.3.3.3.3.3.3.3.3.o.y w 3.w w e w w w w w w N  .{ { { { { Z w + ~ 3.3.",
"3.3.~ . P 3.O.{ { { } { O.+.r r t t e e r r t y t [ 3.3.3.3.3.3.3.3.3.3.3.3.o.y r 3.r r r r r r r r r G :.:.:.:.:.:.-.n # ~ 3.3.",
"3.3.~ . w E y y y y y t y t y y y y y y y y y y r } 3.3.3.3.3.3.3.3.3.3.3.3.o.y y 3.y y y y y y y y t y y y t y y y t y % &.3.3.",
"3.3.<.O % n m m M y M M y 3.m y y y y y y y y y t } 3.3.3.3.3.3.3.3.3.3.3.3.o.y m 3.y M y y y y m m m m m m m m m m m 8 - 3.3.3.",
"3.3.3.,.s u u i p a 2 % B 3.B M y y S y S y S y t } 3.3.3.3.3.3.3.3.3.3.3.3.o.y y 3.S y V B B B B B M M 1 3 d a a i u | <.3.3.3.",
"3.3.3.3.3.3.3.3.3.3./ % S 3.B S U y S S S S S S t } 3.3.3.3.3.3.3.3.3.3.3.3.o.y B 3.S B S S B S V V V S 6 ) 3.3.3.3.3.3.3.3.3.3.",
"3.3.3.3.>.&.%.*.=.%.Z = S 2.y U S S S S S S y U y } 3.3.3.3.3.3.3.3.3.3.3.3.o.y S 3.U y S S S S S S S S 6 J =.;.*.*.&.,.3.3.3.3.",
"3.3.3.v X o O @ # # % % S 2.U S S S S S S y U S y } 3.3.3.3.3.3.3.3.3.3.3.3.o.y S 3.y U S S S S S S S S 5 = % # # @ O X J 3.3.3.",
"3.3.&.. & t B B B S y U y 3.B B S S S S S S B B y { 3.3.3.3.3.3.3.3.3.3.3.3.o.y B 3.S S S S y S S S S S S B B B B V V 0 . &.3.3.",
"3.3.~ . e O.>.>.>.>.>.>.>.3.B B S y y S y y B B y } 3.3.3.3.3.3.3.3.3.3.3.3.o.t B 3.y y y S S y y y y Q >.>.>.>.>.>.] M % ~ 3.3.",
"3.3.~ . y 2.[ Y Y Y Y R Y [ y y y y y y y y y y t } 3.3.3.3.3.3.3.3.3.3.3.3.o.y y 3.y y y y y y y y y U ] o.o.o.o.o.o.M # ~ 3.3.",
"3.3.) . 6 C t t t t t t t t t t y y y y t t y t r } 3.3.3.3.3.3.3.3.3.3.3.3.o.y t 3.t t y y y t y y t t t y r t t r n w X ) 3.3.",
"3.3.<.+ X > < < < 5 5 5 w 3.w r e e t e e e e w r } 3.3.3.3.3.3.3.3.3.3.3.3.o.y e 3.r w r r r w y e e r 8 5 5 5 < < , O + <.3.3.",
"  3.3.,.c u u p a a 2 % q 3.q q q q 0 e q q q q r } 3.3.3.3.3.3.3.3.3.3.3.3.o.y q 3.q q q q q q e e 0 0 5 6 g h a p i c ,.3.3.  ",
"  3.3.3.3.3.3.3.3.3./ % 0 3.9 9 0 9 8 9 9 9 9 9 e { 3.3.3.3.3.3.3.3.3.3.3.3.o.t 9 3.9 9 9 9 9 9 9 9 9 9 , ) 3.3.3.3.3.3.3.3.3.  ",
"  3.3.3.3.3.3.3.3.3./ % 6 3.6 6 8 8 5 5 8 8 8 8 e } 3.3.3.3.3.3.3.3.3.3.3.3.o.y 6 3.6 6 6 8 8 6 7 7 7 6 , ) 3.3.3.3.3.3.3.3.3.  ",
"    3.3.3.3.3.3.3.3./ : 6 3.5 6 5 5 5 5 5 5 5 5 q } 3.3.3.3.3.3.3.3.3.3.3.3.o.y 5 3.6 5 5 5 5 5 1 6 5 5 , / 3.3.3.3.3.3.3.3.    ",
"    3.3.3.3.3.3.3.3./ % , 3., < 5 5 : 5 > 5 : 5 q } 3.3.3.3.3.3.3.3.3.3.3.3.o.y , 3.< < < < < < < < < < : / 3.3.3.3.3.3.3.3.    ",
"    3.3.3.3.3.3.3.3./ % > 2.= 5 : : : : : : : : q { 3.3.3.3.3.3.3.3.3.3.3.3.o.y > 3.> > : : > : : > : : : / 3.3.3.3.3.3.3.3.    ",
"      3.3.3.3.3.3.3./ % : 2.= = : = : = = = ; ; q } 3.3.3.3.3.3.3.3.3.3.3.3.o.y % 3.; ; ; ; ; ; ; ; ; ; : ) 3.3.3.3.3.3.3.      ",
"      3.3.3.3.3.3.3.( = $ 3.$ $ $ $ % % % % % % 9 } 3.3.3.3.3.3.3.3.3.3.3.3.o.y % 3.$ % $ % % % % % % % : / 3.3.3.3.3.3.3.      ",
"        3.3.3.3.3.3./ % @ 3.# # # # # # # # # # 9 { 3.3.3.3.3.3.3.3.3.3.3.3.o.y # 3.@ # # # @ # # # @ @ = ) 3.3.3.3.3.3.        ",
"        3.3.3.3.3.3./ = O 3.O O O + O @ O O O @ 8 } 3.3.3.3.3.3.3.3.3.3.3.3.o.y O 3.O O O O + O + + O + = ) 3.3.3.3.3.3.        ",
"          3.3.3.3.3./ = X u X o X X X X X X X X 8 } 3.3.3.3.3.3.3.3.3.3.3.3.o.y X u X X X X X o X X X X = / 3.3.3.3.3.          ",
"            3.3.3.3./ = @ @ # # % % % = ; : : : q { 3.3.3.3.3.3.3.3.3.3.3.3.o.y , : : : : = % % $ # # # = ) 3.3.3.3.            ",
"            3.3.3.3. .j k z z x x D F F G G G P I $.3.3.3.3.3.3.3.3.3.3.3.3.$.I I P P G G G F F Z x z z l ..3.3.3.3.            ",
"              3.3.3.3.3.3.3.3.3.3.3.3.3.3.3.3.3.3.3.3.3.3.3.3.3.3.3.3.3.3.3.3.3.3.3.3.3.3.3.3.3.3.3.3.3.3.3.3.3.3.              ",
"                3.3.3.3.3.3.3.3.3.3.3.3.3.3.3.3.3.3.3.3.3.3.3.3.3.3.3.3.3.3.3.3.3.3.3.3.3.3.3.3.3.3.3.3.3.3.3.3.                ",
"                  3.3.3.3.3.3.3.3.3.3.3.3.3.3.3.3.3.3.3.3.3.3.3.3.3.3.3.3.3.3.3.3.3.3.3.3.3.3.3.3.3.3.3.3.3.3.                  ",
"                    3.3.3.3.3.3.3.3.3.3.3.3.3.3.3.3.3.3.3.3.3.3.3.3.3.3.3.3.3.3.3.3.3.3.3.3.3.3.3.3.3.3.3.3.                    ",
"                      3.3.3.3.3.3.3.3.3.3.3.3.3.3.3.3.3.3.3.3.3.3.3.3.3.3.3.3.3.3.3.3.3.3.3.3.3.3.3.3.3.3.                      ",
"                        3.3.3.3.3.3.3.3.3.3.3.3.3.3.3.3.3.3.3.3.3.3.3.3.3.3.3.3.3.3.3.3.3.3.3.3.3.3.3.3.                        ",
"                            3.3.3.3.3.3.3.3.3.3.3.3.3.3.3.3.3.3.3.3.3.3.3.3.3.3.3.3.3.3.3.3.3.3.3.3.                            ",
"                              3.3.3.3.3.3.3.3.3.3.3.3.3.3.3.3.3.3.3.3.3.3.3.3.3.3.3.3.3.3.3.3.3.3.                              ",
"                                  3.3.3.3.3.3.3.3.3.3.3.3.3.3.3.3.3.3.3.3.3.3.3.3.3.3.3.3.3.3.                                  ",
"                                      3.3.3.3.3.3.3.3.3.3.3.3.3.3.3.3.3.3.3.3.3.3.3.3.3.3.                                      ",
"                                            3.3.3.3.3.3.3.3.3.3.3.3.3.3.3.3.3.3.3.3.                                            ",
"                                                  3.3.3.3.3.3.3.3.3.3.3.3.3.3.                                                  "
};
