/* XPM */
static char *_56870da20df4798f52746ec857a9efd[] = {
/* columns rows colors chars-per-pixel */
"16 16 83 1 ",
"  c None",
". c #16125B",
"X c #1C1D65",
"o c #1E2169",
"O c #1E2269",
"+ c #272669",
"@ c #232D72",
"# c #242F74",
"$ c #273679",
"% c #2B3D7F",
"& c #333070",
"* c #373676",
"= c #3C417F",
"- c #2B3E80",
"; c #2D4183",
": c #3F4784",
"> c #314889",
", c #334C8B",
"< c #3A4C8A",
"1 c #3E5894",
"2 c #3E639F",
"3 c #56568B",
"4 c #4A5A93",
"5 c #4B5F98",
"6 c #5B6397",
"7 c #596599",
"8 c #4068A3",
"9 c #5C6DA0",
"0 c #5D6FA2",
"q c #4C71A9",
"w c #4C7FB6",
"e c #6576A7",
"r c #6679A8",
"t c #6679A9",
"y c #687BAA",
"u c #687FAE",
"i c #757BA6",
"p c #767BA7",
"a c #7A7DA7",
"s c #5787BB",
"d c #7C81AA",
"f c #7983AD",
"g c #6280B1",
"h c #6B82B0",
"j c #6C86B3",
"k c #6E88B5",
"l c #6E8AB7",
"z c #7F8EB6",
"x c #708EBA",
"c c #7693BD",
"v c #799FC8",
"b c #8A88AD",
"n c #8B89AD",
"m c #8B8AAE",
"M c #868DB3",
"N c #8C8CB0",
"B c #8D8CB1",
"V c #8D8EB2",
"C c #8E8EB2",
"Z c #918DB0",
"A c #8491B7",
"S c #8E90B4",
"D c #8294BB",
"F c #8295BC",
"G c #8A93B8",
"H c #9196B9",
"J c #959EBF",
"K c #A4A0BC",
"L c #859BC1",
"P c #869CC2",
"I c #89A2C6",
"U c #89ABCF",
"Y c #97A1C2",
"T c #A2B8D5",
"R c #B2BBD3",
"E c #C3C1D4",
"W c #C8C8DA",
"Q c #C8CADB",
"! c #C9CADB",
"~ c #D2CFDE",
"^ c #D2D1DF",
"/ c #F0EFF4",
"( c white",
/* pixels */
"     ((((((     ",
"   ((((((((((   ",
"  ((((((((((((  ",
" (NZnnNNSNN3d(( ",
" (Nn.......&+Q( ",
"((NH@@$%;%:@@i((",
"KMJR>>D((Te>5YGQ",
"/7<g22L((Tl2214E",
"~0rUwwI((Tvwsj0^",
"~yuc88L((Tc8qjhQ",
"((Nr,,F((Tr>,f((",
" (N6##z((T6##i( ",
" (N*XOA((T=OXa( ",
"  ((((((((((((  ",
"   ((((((((((   ",
"     ((((((     "
};
